<?xml version="1.0" encoding="UTF-8" standalone="no"?>
<!-- Created with Inkscape (http://www.inkscape.org/) -->

<svg
   width="297.89841mm"
   height="137.27753mm"
   viewBox="0 0 297.89841 137.27753"
   version="1.1"
   id="svg1"
   xmlns="http://www.w3.org/2000/svg"
   xmlns:svg="http://www.w3.org/2000/svg">
  <defs
     id="defs1" />
  <g
     id="layer1"
     transform="translate(29.624396,-77.099279)">
    <rect
       style="fill:#ffffff;fill-opacity:0.0194153;stroke-width:1;stroke-dasharray:none"
       id="rect7"
       width="297.89841"
       height="137.27753"
       x="-29.624397"
       y="77.099281"
       ry="0"
       rx="0" />
    <g
       id="g7"
       transform="translate(4.6541567,34.012224)">
      <g
         id="use1"
         style="fill:#000000;stroke:none"
         transform="matrix(0.21586592,0,0,0.21586592,3.3086879,55.773674)">
        <title
           id="title1">Pet shop</title>
        <path
           d="M 165.92677,435.15295 H 335.5689 c 0,-24.1156 -1.7218,-28.89923 -41.65993,-28.89923 6.38035,-19.14104 32.31489,-65.44956 46.72667,-65.44956 12.75034,0 27.96094,0.70234 27.96094,29.79468 0,33.02768 55.58064,86.2787 69.05789,64.55411 20.08489,-32.37551 -34.52894,-22.50298 -34.52894,-100.58432 0,-106.81934 62.34005,-91.61255 62.34005,-151.6271 0,-30.02517 -8.29475,-34.07978 -8.29475,-55.54656 0,-28.370176 24.99325,-26.72387 20.13052,-50.246636 -3.35906,-16.248452 -5.98777,-29.278865 -7.94601,-48.9275 C 467.96578,14.279281 467.52276,-0.58004 453.04177,0.017446 436.02726,0.71944903 429.57244,30.668354 403.12553,32.815679 376.73265,34.95865 354.22849,10.347065 344.01347,13.862291 c -10.12884,3.485607 -6.94332,30.963456 -0.93828,50.479815 9.43826,30.674062 30.02517,70.559154 -7.50629,76.564194 -37.53146,6.00503 -102.08558,12.01006 -148.62451,73.56166 -46.53901,61.5516 -44.821,133.78712 -63.05286,156.13088 C 62.70272,445.58781 0,414.79844 0,477.18819 c 0,27.93187 47.327352,48.04026 54.833644,39.03271 7.506296,-9.00755 -63.781385,-35.84807 15.983076,-67.55663 68.14455,-27.08932 74.22769,-32.61922 95.11005,-13.51132 z"
           id="path1" />
      </g>
      <text
         xml:space="preserve"
         style="font-size:31.0953px;font-family:padmaa;-inkscape-font-specification:padmaa;text-align:start;text-anchor:start;fill:#000000;stroke-width:4.89691;stroke-dasharray:none"
         x="127.00744"
         y="99.017441"
         id="text6"><tspan
           id="tspan6"
           style="text-align:start;text-anchor:start;stroke-width:4.89691"
           x="127.00744"
           y="99.017441">Pet </tspan><tspan
           style="text-align:start;text-anchor:start;stroke-width:4.89691"
           x="127.00744"
           y="137.88657"
           id="tspan7">Gallery</tspan></text>
    </g>
  </g>
</svg>
